<?xml version="1.0" encoding="utf-8"?>
<!-- Generator: Adobe Illustrator 24.3.0, SVG Export Plug-In . SVG Version: 6.00 Build 0)  -->
<svg version="1.0" id="katman_1" xmlns="http://www.w3.org/2000/svg" xmlns:xlink="http://www.w3.org/1999/xlink" x="0px" y="0px"
	 viewBox="0 0 841.89 595.28" style="enable-background:new 0 0 841.89 595.28;" xml:space="preserve">
<style type="text/css">
	.st0{fill:#333333;}
	.st1{fill:#31A0DB;}
</style>
<path class="st0" d="M580.46,243.42v55.78c0,19.49,8.12,27.08,22.2,27.08c14.08,0,22.2-8.12,22.2-27.08v-55.78h23.29v56.32
	c0,29.78-16.79,46.03-45.49,46.03c-28.16,0-45.49-16.25-45.49-46.03v-56.32H580.46z M256.63,243.42l44.95,100.72h-24.37l-9.21-21.66
	h-46.57l-9.21,21.66H188.4l44.95-100.72H256.63z M525.77,243.42v18.95h-52.53v26.53h46.03v18.95h-46.03v36.82h-23.29V243.42H525.77z
	 M703.39,243.42v81.77h52.53v18.95H680.1V243.42H703.39z M129.92,243.42c26.53,0,43.86,13.54,43.86,36.82
	c0,22.2-16.79,36.28-43.86,36.28h-20.58v28.16H86.05V243.42H129.92z M384.43,297.03l34.12,47.11h-22.2c-3.25,0-6.5-1.08-8.66-3.79
	l-0.54-0.54l-12.45-17.33c-2.71-4.33-2.71-9.75,0-14.08l0.54-1.08L384.43,297.03z M244.72,266.7l-15.7,38.45h31.95L244.72,266.7z
	 M128.84,262.37h-19.49v35.2h18.95c14.62,0,21.66-6.5,21.66-17.33S142.91,262.37,128.84,262.37z M340.03,243.42
	c3.79,0,6.5,1.08,8.66,3.79l0.54,0.54l6.5,9.21c2.71,3.79,2.71,9.21,0.54,13l-0.54,0.54l-9.21,13l-29.24-40.61L340.03,243.42z"/>
<path class="st1" d="M427.76,234.21L310.79,359.84c-1.08,1.62-3.79-0.54-2.17-2.17l84.48-119.13c2.17-2.71,5.42-4.33,9.21-4.33
	H427.76z"/>
</svg>
